<svg xmlns="http://www.w3.org/2000/svg" xmlns:xlink="http://www.w3.org/1999/xlink"><symbol id="arrow-left" viewBox="0 0 60.4 103.5">
<polygon points="51.6,103.5 60.4,94.7 17.5,51.8 60.4,8.8 51.6,0 0,51.7 0.1,51.8 0,51.8 "/>
</symbol><symbol id="arrow-right" viewBox="0 0 60.4 103.5">
<polygon points="8.8,0 0,8.8 42.9,51.7 0,94.7 8.8,103.5 60.4,51.8 60.3,51.7 60.4,51.7 "/>
</symbol><symbol id="arrow" viewBox="0 0 103.5 60.4">
<polygon points="103.5,8.8 94.7,0 51.8,42.9 8.8,0 0,8.8 51.7,60.4 51.8,60.3 51.8,60.4 "/>
</symbol><symbol id="close" viewBox="0 0 59 59">
<polygon points="59,7.8 51.2,0 29.5,21.7 7.8,0 0,7.8 21.7,29.5 0,51.2 7.8,59 29.5,37.3 51.2,59 59,51.2 37.3,29.5 "/>
</symbol><symbol id="hero_arrow" viewBox="0 0 56 56">
<path d="M28,56C12.5,56,0,43.5,0,28S12.5,0,28,0s28,12.5,28,28S43.5,56,28,56z M28,4C14.7,4,4,14.7,4,28s10.7,24,24,24
	s24-10.7,24-24S41.3,4,28,4z M28,42v-9.9l-0.3-0.3l-7.5-10.9c-0.2-0.4-0.6-0.7-1-0.8H14c-1.3,0-1.7,1.2-0.9,2.2l14,19.3
	C27.4,41.8,27.7,42,28,42z M29,41.5l14-19.3c0.7-1,0.3-2.2-0.9-2.2h-5.2c-0.4,0.1-0.8,0.4-1,0.8l-7.6,10.9L28,32v10
	C28.4,41.9,28.7,41.8,29,41.5z"/>
</symbol><symbol id="logo" viewBox="0 0 133.4 25.6">
<style type="text/css">
	.st0{fill:#231F20;}
</style>
<g>
	<g>
		<path class="st0" d="M9.9,11.3V1.8l-3.5,9.4H5.2L1.7,1.7v9.6H0.3V0h2l3.4,9.2L9.2,0h2v11.3H9.9z"/>
		<path class="st0" d="M13.7,11.3V0h7.6v1.3h-6.2v3.5h5.4v1.3h-5.4V10h6.2v1.3H13.7z"/>
		<path class="st0" d="M29.9,10.2c-0.8,0.8-1.9,1.1-3,1.1h-4V0h4c1.1,0,2.2,0.4,3,1.2c1.2,1.2,1.5,2.9,1.5,4.5
			C31.4,7.3,31.1,9,29.9,10.2z M29,2.1c-0.5-0.5-1.3-0.8-2-0.8h-2.5V10h2.5c0.7,0,1.5-0.3,2-0.8c0.9-0.9,1-2.4,1-3.6
			C29.9,4.4,29.8,3,29,2.1z"/>
		<path class="st0" d="M33.3,11.3V0h1.5v11.3H33.3z"/>
		<path class="st0" d="M37.2,11.3V0h1.4v10H44v1.3H37.2z"/>
		<path class="st0" d="M45.5,11.3V0h1.4v10h5.5v1.3H45.5z"/>
	</g>
</g>
<g>
	<g>
		<path class="st0" d="M3.1,18.4c-0.3,0.3-0.8,0.5-1.3,0.5c-0.5,0-1-0.2-1.3-0.4C0.2,18.1,0,17.7,0,17.3h0.6c0,0.3,0.1,0.5,0.3,0.7
			c0.2,0.2,0.5,0.3,0.9,0.3c0.3,0,0.6-0.1,0.8-0.3c0.1-0.1,0.2-0.3,0.2-0.5c0-0.4-0.2-0.6-0.8-0.7l-0.7-0.1
			c-0.7-0.1-1.2-0.5-1.2-1.2c0-0.3,0.2-0.7,0.4-0.9c0.3-0.3,0.7-0.4,1.2-0.4c0.4,0,0.9,0.1,1.2,0.4c0.3,0.3,0.4,0.6,0.4,1H2.8
			c0-0.2-0.1-0.4-0.2-0.6c-0.2-0.2-0.4-0.3-0.8-0.3c-0.3,0-0.6,0.1-0.8,0.3c-0.1,0.1-0.2,0.3-0.2,0.5c0,0.4,0.3,0.6,0.7,0.6
			c0.3,0,0.5,0.1,0.8,0.1c0.8,0.1,1.3,0.6,1.3,1.3C3.5,17.9,3.3,18.1,3.1,18.4z"/>
		<path class="st0" d="M7.1,18.3c-0.3,0.3-0.7,0.5-1.2,0.5c-0.5,0-0.9-0.2-1.2-0.5c-0.5-0.5-0.6-1.1-0.6-1.9c0-0.7,0.1-1.4,0.6-1.9
			c0.3-0.3,0.8-0.5,1.2-0.5c0.5,0,0.9,0.2,1.2,0.5c0.3,0.3,0.4,0.6,0.4,1H6.9c0-0.2-0.1-0.5-0.2-0.6c-0.2-0.2-0.5-0.3-0.8-0.3
			c-0.3,0-0.6,0.1-0.8,0.3c-0.4,0.4-0.4,1-0.4,1.5c0,0.5,0,1.1,0.4,1.5c0.2,0.2,0.5,0.3,0.8,0.3c0.3,0,0.6-0.1,0.8-0.3
			c0.1-0.2,0.2-0.4,0.2-0.7h0.6C7.5,17.7,7.4,18.1,7.1,18.3z"/>
		<path class="st0" d="M11.1,18.7v-2.1H8.9v2.1H8.3v-4.5h0.6v1.9h2.2v-1.9h0.6v4.5H11.1z"/>
		<path class="st0" d="M15.6,18.3c-0.3,0.3-0.8,0.5-1.2,0.5c-0.5,0-0.9-0.2-1.2-0.5c-0.5-0.5-0.6-1.1-0.6-1.9c0-0.7,0.1-1.4,0.6-1.9
			c0.3-0.3,0.8-0.5,1.2-0.5c0.5,0,0.9,0.2,1.2,0.5c0.5,0.5,0.6,1.1,0.6,1.9C16.1,17.2,16.1,17.8,15.6,18.3z M15.2,15
			c-0.2-0.2-0.5-0.3-0.8-0.3c-0.3,0-0.6,0.1-0.8,0.3c-0.4,0.4-0.4,1-0.4,1.5c0,0.5,0,1.1,0.4,1.5c0.2,0.2,0.5,0.3,0.8,0.3
			c0.3,0,0.6-0.1,0.8-0.3c0.4-0.4,0.4-1,0.4-1.5C15.6,16,15.5,15.4,15.2,15z"/>
		<path class="st0" d="M19.8,18.3c-0.3,0.3-0.8,0.5-1.2,0.5c-0.5,0-0.9-0.2-1.2-0.5c-0.5-0.5-0.6-1.1-0.6-1.9c0-0.7,0.1-1.4,0.6-1.9
			c0.3-0.3,0.8-0.5,1.2-0.5c0.5,0,0.9,0.2,1.2,0.5c0.5,0.5,0.6,1.1,0.6,1.9C20.4,17.2,20.3,17.8,19.8,18.3z M19.4,15
			c-0.2-0.2-0.5-0.3-0.8-0.3c-0.3,0-0.6,0.1-0.8,0.3c-0.4,0.4-0.4,1-0.4,1.5c0,0.5,0,1.1,0.4,1.5c0.2,0.2,0.5,0.3,0.8,0.3
			c0.3,0,0.6-0.1,0.8-0.3c0.4-0.4,0.4-1,0.4-1.5C19.8,16,19.8,15.4,19.4,15z"/>
		<path class="st0" d="M21.3,18.7v-4.5h0.6v4H24v0.5H21.3z"/>
		<path class="st0" d="M29.2,18.3c-0.3,0.3-0.8,0.5-1.2,0.5c-0.5,0-0.9-0.2-1.2-0.5c-0.5-0.5-0.6-1.1-0.6-1.9c0-0.7,0.1-1.4,0.6-1.9
			c0.3-0.3,0.8-0.5,1.2-0.5c0.5,0,0.9,0.2,1.2,0.5c0.5,0.5,0.6,1.1,0.6,1.9C29.8,17.2,29.7,17.8,29.2,18.3z M28.8,15
			c-0.2-0.2-0.5-0.3-0.8-0.3c-0.3,0-0.6,0.1-0.8,0.3c-0.4,0.4-0.4,1-0.4,1.5c0,0.5,0,1.1,0.4,1.5c0.2,0.2,0.5,0.3,0.8,0.3
			c0.3,0,0.6-0.1,0.8-0.3c0.4-0.4,0.4-1,0.4-1.5C29.2,16,29.1,15.4,28.8,15z"/>
		<path class="st0" d="M31.2,14.7v1.5h2.1v0.5h-2.1v2h-0.6v-4.5h2.9v0.5H31.2z"/>
		<path class="st0" d="M36.8,18.8c-0.4,0-0.7-0.1-1-0.4c-0.3-0.3-0.4-0.6-0.4-1.1h0.8c0,0.2,0,0.5,0.2,0.6c0.1,0.1,0.2,0.2,0.4,0.2
			c0.4,0,0.6-0.2,0.6-0.6v-3.3h0.8v3.2C38.1,18.3,37.6,18.8,36.8,18.8z"/>
		<path class="st0" d="M42,18.3c-0.3,0.3-0.8,0.5-1.3,0.5c-0.5,0-1-0.2-1.3-0.5c-0.5-0.5-0.6-1.1-0.6-1.8c0-0.7,0.1-1.4,0.6-1.8
			c0.3-0.3,0.8-0.5,1.3-0.5c0.5,0,1,0.2,1.3,0.5c0.5,0.5,0.6,1.1,0.6,1.8C42.6,17.2,42.5,17.8,42,18.3z M41.4,15.2
			c-0.2-0.2-0.5-0.3-0.7-0.3c-0.3,0-0.5,0.1-0.7,0.3c-0.3,0.3-0.3,0.9-0.3,1.3c0,0.4,0,1,0.3,1.3c0.2,0.2,0.5,0.3,0.7,0.3
			c0.3,0,0.5-0.1,0.7-0.3c0.3-0.3,0.3-0.9,0.3-1.3C41.7,16,41.7,15.5,41.4,15.2z"/>
		<path class="st0" d="M45,18.8c-1.2,0-1.8-0.7-1.8-1.8v-2.8H44V17c0,0.6,0.3,1.1,1,1.1c0.7,0,1-0.4,1-1.1v-2.8h0.8V17
			C46.8,18.1,46.2,18.8,45,18.8z"/>
		<path class="st0" d="M50.2,18.7L49.5,17h-1v1.7h-0.8v-4.5h1.9c1.1,0,1.6,0.7,1.6,1.4c0,0.6-0.3,1.1-0.8,1.3l0.8,1.9H50.2z
			 M49.6,14.9h-1.1v1.4h1.1c0.5,0,0.7-0.2,0.7-0.7C50.3,15.2,50,14.9,49.6,14.9z"/>
		<path class="st0" d="M54.6,18.7l-2-3.1v3.1h-0.8v-4.5h0.9l1.9,3.1v-3.1h0.8v4.5H54.6z"/>
		<path class="st0" d="M59.2,18.7l-0.3-0.9h-1.8l-0.3,0.9H56l1.6-4.5h0.9l1.6,4.5H59.2z M58,15.2l-0.6,1.9h1.3L58,15.2z"/>
		<path class="st0" d="M60.6,18.7v-4.5h0.8v3.8h2.1v0.8H60.6z"/>
		<path class="st0" d="M64.1,18.7v-4.5h0.8v4.5H64.1z"/>
		<path class="st0" d="M68.8,18.3c-0.3,0.3-0.9,0.5-1.4,0.5c-0.5,0-1-0.1-1.4-0.5c-0.3-0.2-0.5-0.6-0.5-1.1h0.8
			c0,0.2,0.1,0.4,0.2,0.6c0.2,0.2,0.5,0.2,0.8,0.2c0.3,0,0.6-0.1,0.8-0.2c0.1-0.1,0.2-0.2,0.2-0.4c0-0.3-0.3-0.5-0.5-0.5
			c-0.3-0.1-0.7-0.1-1-0.1c-0.6-0.1-1.2-0.5-1.2-1.3c0-0.4,0.2-0.7,0.4-0.9c0.3-0.3,0.8-0.5,1.3-0.5c0.5,0,1,0.2,1.3,0.4
			c0.3,0.3,0.5,0.6,0.5,1h-0.8c0-0.2-0.1-0.3-0.2-0.4c-0.1-0.2-0.4-0.2-0.7-0.2c-0.3,0-0.6,0.1-0.7,0.2c-0.1,0.1-0.2,0.2-0.2,0.4
			c0,0.3,0.2,0.4,0.5,0.5c0.3,0,0.7,0.1,1,0.1c0.7,0.1,1.2,0.5,1.2,1.3C69.2,17.8,69,18.1,68.8,18.3z"/>
		<path class="st0" d="M73.6,18.7v-3.2l-1.2,3.2h-0.6l-1.2-3.2v3.3h-0.8v-4.5H71l1.2,3.2l1.2-3.2h1.1v4.5H73.6z"/>
		<path class="st0" d="M75.6,19.8l-0.2-0.4c0.4-0.2,0.4-0.4,0.4-0.7h-0.5v-1h1v0.9C76.3,19.2,76.2,19.6,75.6,19.8z"/>
		<path class="st0" d="M82.6,18.7v-3.2l-1.2,3.2h-0.6l-1.2-3.2v3.3h-0.8v-4.5h1.1l1.2,3.2l1.2-3.2h1.1v4.5H82.6z"/>
		<path class="st0" d="M84.3,18.7v-4.5h3.2v0.7h-2.4V16h2.1v0.7h-2.1V18h2.4v0.7H84.3z"/>
		<path class="st0" d="M91.3,18.2c-0.3,0.3-0.8,0.5-1.3,0.5h-1.8v-4.5H90c0.5,0,1,0.2,1.3,0.5c0.5,0.5,0.5,1.2,0.5,1.8
			C91.8,17.1,91.8,17.8,91.3,18.2z M90.7,15.2c-0.2-0.2-0.4-0.3-0.6-0.3h-0.9V18H90c0.3,0,0.5-0.1,0.6-0.3c0.3-0.3,0.3-0.9,0.3-1.3
			C91,16,91,15.5,90.7,15.2z"/>
		<path class="st0" d="M92.6,18.7v-4.5h0.8v4.5H92.6z"/>
		<path class="st0" d="M97.2,18.7l-0.3-0.9h-1.8l-0.3,0.9h-0.8l1.6-4.5h0.9l1.6,4.5H97.2z M96,15.2l-0.6,1.9h1.3L96,15.2z"/>
		<path class="st0" d="M0.2,25.5V21h0.8v4.5H0.2z"/>
		<path class="st0" d="M4.8,25.5l-2-3.1v3.1H2V21h0.9l1.9,3.1V21h0.8v4.5H4.8z"/>
		<path class="st0" d="M8.4,21.8v3.8H7.5v-3.8H6.2V21h3.5v0.8H8.4z"/>
		<path class="st0" d="M10.2,25.5V21h3.2v0.7h-2.4v1.1h2.1v0.7h-2.1v1.2h2.4v0.7H10.2z"/>
		<path class="st0" d="M17.1,25.5L17,25c-0.1,0.3-0.6,0.6-1.1,0.6c-0.5,0-1-0.1-1.4-0.5c-0.5-0.5-0.6-1.1-0.6-1.8
			c0-0.7,0.1-1.3,0.6-1.8c0.3-0.3,0.9-0.5,1.4-0.5c0.6,0,1,0.2,1.3,0.5c0.2,0.2,0.4,0.5,0.4,0.9h-0.8c0-0.2-0.1-0.3-0.2-0.4
			c-0.2-0.2-0.4-0.3-0.7-0.3c-0.3,0-0.6,0.1-0.7,0.3c-0.3,0.3-0.4,0.9-0.4,1.3s0,1,0.4,1.3c0.2,0.2,0.5,0.3,0.7,0.3
			c0.3,0,0.5-0.1,0.7-0.3c0.2-0.3,0.3-0.5,0.3-0.9h-1.1V23h1.9v2.5H17.1z"/>
		<path class="st0" d="M21,25.5l-0.8-1.7h-1v1.7h-0.8V21h1.9c1.1,0,1.6,0.7,1.6,1.4c0,0.6-0.3,1.1-0.8,1.3l0.8,1.9H21z M20.4,21.7
			h-1.1v1.4h1.1c0.5,0,0.7-0.2,0.7-0.7C21.1,22,20.8,21.7,20.4,21.7z"/>
		<path class="st0" d="M25.5,25.5l-0.3-0.9h-1.8l-0.3,0.9h-0.8l1.6-4.5h0.9l1.6,4.5H25.5z M24.3,22l-0.6,1.9H25L24.3,22z"/>
		<path class="st0" d="M28.2,21.8v3.8h-0.8v-3.8H26V21h3.5v0.8H28.2z"/>
		<path class="st0" d="M30.1,25.5V21h3.2v0.7h-2.4v1.1H33v0.7h-2.1v1.2h2.4v0.7H30.1z"/>
		<path class="st0" d="M37,25c-0.3,0.3-0.8,0.5-1.3,0.5H34V21h1.8c0.5,0,1,0.2,1.3,0.5c0.5,0.5,0.5,1.2,0.5,1.8
			C37.6,23.9,37.5,24.6,37,25z M36.4,22c-0.2-0.2-0.4-0.3-0.6-0.3h-0.9v3.1h0.9c0.3,0,0.5-0.1,0.6-0.3c0.3-0.3,0.3-0.9,0.3-1.3
			C36.7,22.8,36.7,22.3,36.4,22z"/>
		<path class="st0" d="M43.7,25.5v-3.2l-1.2,3.2h-0.6l-1.2-3.2v3.3h-0.8V21H41l1.2,3.2l1.2-3.2h1.1v4.5H43.7z"/>
		<path class="st0" d="M48.2,25.5l-0.3-0.9h-1.8l-0.3,0.9H45l1.6-4.5h0.9l1.6,4.5H48.2z M47,22l-0.6,1.9h1.3L47,22z"/>
		<path class="st0" d="M52.2,25.5l-0.8-1.7h-1v1.7h-0.8V21h1.9c1.1,0,1.6,0.7,1.6,1.4c0,0.6-0.3,1.1-0.8,1.3l0.8,1.9H52.2z
			 M51.5,21.7h-1.1v1.4h1.1c0.5,0,0.7-0.2,0.7-0.7C52.3,22,52,21.7,51.5,21.7z"/>
		<path class="st0" d="M56.6,25.5l-1.2-2.1l-0.8,0.9v1.2h-0.8V21h0.8v2.1l1.8-2.1h1L56,22.7l1.6,2.8H56.6z"/>
		<path class="st0" d="M58.1,25.5V21h3.2v0.7H59v1.1h2.1v0.7H59v1.2h2.4v0.7H58.1z"/>
		<path class="st0" d="M63.9,21.8v3.8h-0.8v-3.8h-1.3V21h3.5v0.8H63.9z"/>
		<path class="st0" d="M65.8,25.5V21h0.8v4.5H65.8z"/>
		<path class="st0" d="M70.4,25.5l-2-3.1v3.1h-0.8V21h0.9l1.9,3.1V21h0.8v4.5H70.4z"/>
		<path class="st0" d="M75.1,25.5L75,25c-0.1,0.3-0.6,0.6-1.1,0.6c-0.5,0-1-0.1-1.3-0.5C72.1,24.6,72,24,72,23.3
			c0-0.7,0.1-1.3,0.6-1.8c0.3-0.3,0.9-0.5,1.3-0.5c0.6,0,1,0.2,1.3,0.5c0.2,0.2,0.4,0.5,0.4,0.9h-0.8c0-0.2-0.1-0.3-0.2-0.4
			c-0.2-0.2-0.4-0.3-0.7-0.3c-0.3,0-0.6,0.1-0.7,0.3c-0.3,0.3-0.4,0.9-0.4,1.3s0,1,0.4,1.3c0.2,0.2,0.5,0.3,0.7,0.3
			c0.3,0,0.5-0.1,0.7-0.3c0.2-0.3,0.3-0.5,0.3-0.9h-1.1V23h1.9v2.5H75.1z"/>
		<path class="st0" d="M81,25.1c-0.3,0.3-0.8,0.5-1.3,0.5s-0.9-0.2-1.3-0.5c-0.5-0.5-0.6-1.1-0.6-1.8c0-0.7,0.1-1.3,0.6-1.8
			c0.3-0.3,0.8-0.5,1.3-0.5s1,0.2,1.3,0.5c0.3,0.3,0.4,0.6,0.4,1h-0.8c0-0.2-0.1-0.3-0.2-0.5c-0.1-0.2-0.4-0.3-0.7-0.3
			c-0.3,0-0.5,0.1-0.7,0.3c-0.3,0.3-0.3,0.9-0.3,1.3s0,1,0.3,1.3c0.2,0.2,0.4,0.3,0.7,0.3c0.3,0,0.5-0.1,0.7-0.3
			c0.1-0.1,0.2-0.3,0.2-0.5h0.8C81.4,24.4,81.3,24.8,81,25.1z"/>
		<path class="st0" d="M85.1,25.1c-0.3,0.3-0.8,0.5-1.3,0.5s-1-0.2-1.3-0.5c-0.5-0.5-0.6-1.1-0.6-1.8c0-0.7,0.1-1.3,0.6-1.8
			c0.3-0.3,0.8-0.5,1.3-0.5s1,0.2,1.3,0.5c0.5,0.5,0.6,1.1,0.6,1.8C85.7,24,85.6,24.6,85.1,25.1z M84.5,22c-0.2-0.2-0.5-0.3-0.7-0.3
			c-0.3,0-0.5,0.1-0.7,0.3c-0.3,0.3-0.3,0.9-0.3,1.3s0,1,0.3,1.3c0.2,0.2,0.5,0.3,0.7,0.3c0.3,0,0.5-0.1,0.7-0.3
			c0.3-0.3,0.3-0.9,0.3-1.3S84.8,22.3,84.5,22z"/>
		<path class="st0" d="M90.2,25.5v-3.2L89,25.5h-0.6l-1.2-3.2v3.3h-0.8V21h1.1l1.2,3.2l1.2-3.2H91v4.5H90.2z"/>
		<path class="st0" d="M95.7,25.5v-3.2l-1.2,3.2h-0.6l-1.2-3.2v3.3h-0.8V21H93l1.2,3.2l1.2-3.2h1.1v4.5H95.7z"/>
		<path class="st0" d="M99.1,25.6c-1.2,0-1.8-0.7-1.8-1.8V21h0.8v2.8c0,0.6,0.3,1.1,1,1.1c0.7,0,1-0.4,1-1.1V21h0.8v2.8
			C100.9,24.9,100.3,25.6,99.1,25.6z"/>
		<path class="st0" d="M104.6,25.5l-2-3.1v3.1h-0.8V21h0.9l1.9,3.1V21h0.8v4.5H104.6z"/>
		<path class="st0" d="M106.3,25.5V21h0.8v4.5H106.3z"/>
		<path class="st0" d="M111.1,25.1c-0.3,0.3-0.8,0.5-1.3,0.5c-0.5,0-0.9-0.2-1.3-0.5c-0.5-0.5-0.6-1.1-0.6-1.8
			c0-0.7,0.1-1.3,0.6-1.8c0.3-0.3,0.8-0.5,1.3-0.5c0.5,0,1,0.2,1.3,0.5c0.3,0.3,0.4,0.6,0.4,1h-0.8c0-0.2-0.1-0.3-0.2-0.5
			c-0.1-0.2-0.4-0.3-0.7-0.3c-0.3,0-0.5,0.1-0.7,0.3c-0.3,0.3-0.3,0.9-0.3,1.3s0,1,0.3,1.3c0.2,0.2,0.4,0.3,0.7,0.3
			c0.3,0,0.5-0.1,0.7-0.3c0.1-0.1,0.2-0.3,0.2-0.5h0.8C111.5,24.4,111.3,24.8,111.1,25.1z"/>
		<path class="st0" d="M114.9,25.5l-0.3-0.9h-1.8l-0.3,0.9h-0.8l1.6-4.5h0.9l1.6,4.5H114.9z M113.7,22l-0.6,1.9h1.3L113.7,22z"/>
		<path class="st0" d="M117.5,21.8v3.8h-0.8v-3.8h-1.3V21h3.5v0.8H117.5z"/>
		<path class="st0" d="M119.4,25.5V21h0.8v4.5H119.4z"/>
		<path class="st0" d="M124.2,25.1c-0.3,0.3-0.8,0.5-1.3,0.5c-0.5,0-1-0.2-1.3-0.5c-0.5-0.5-0.6-1.1-0.6-1.8c0-0.7,0.1-1.3,0.6-1.8
			c0.3-0.3,0.8-0.5,1.3-0.5c0.5,0,1,0.2,1.3,0.5c0.5,0.5,0.6,1.1,0.6,1.8C124.7,24,124.7,24.6,124.2,25.1z M123.6,22
			c-0.2-0.2-0.5-0.3-0.7-0.3c-0.3,0-0.5,0.1-0.7,0.3c-0.3,0.3-0.3,0.9-0.3,1.3s0,1,0.3,1.3c0.2,0.2,0.5,0.3,0.7,0.3
			c0.3,0,0.5-0.1,0.7-0.3c0.3-0.3,0.3-0.9,0.3-1.3S123.9,22.3,123.6,22z"/>
		<path class="st0" d="M128.3,25.5l-2-3.1v3.1h-0.8V21h0.9l1.9,3.1V21h0.8v4.5H128.3z"/>
		<path class="st0" d="M133,25.1c-0.3,0.3-0.9,0.5-1.4,0.5c-0.5,0-1-0.1-1.4-0.5c-0.3-0.2-0.5-0.6-0.5-1.1h0.8
			c0,0.2,0.1,0.4,0.2,0.6c0.2,0.2,0.5,0.2,0.8,0.2c0.3,0,0.6-0.1,0.8-0.2c0.1-0.1,0.2-0.2,0.2-0.4c0-0.3-0.3-0.5-0.5-0.5
			c-0.3-0.1-0.7-0.1-1-0.1c-0.6-0.1-1.2-0.5-1.2-1.3c0-0.4,0.2-0.7,0.4-0.9c0.3-0.3,0.8-0.5,1.3-0.5c0.5,0,1,0.2,1.3,0.4
			c0.3,0.3,0.5,0.6,0.5,1h-0.8c0-0.2-0.1-0.3-0.2-0.4c-0.1-0.2-0.4-0.2-0.7-0.2c-0.3,0-0.5,0.1-0.7,0.2c-0.1,0.1-0.2,0.2-0.2,0.4
			c0,0.3,0.2,0.4,0.5,0.5c0.3,0,0.7,0.1,1,0.1c0.7,0.1,1.2,0.5,1.2,1.3C133.4,24.6,133.3,24.9,133,25.1z"/>
	</g>
</g>
<path class="st0" d="M99,19.9l-0.2-0.4c0.4-0.2,0.4-0.4,0.4-0.7h-0.5v-1h1v0.9C99.7,19.3,99.6,19.7,99,19.9z"/>
</symbol><symbol id="M" viewBox="0 0 499.1 462.4">
<path d="M499,0.1v462H384V230.5L281,389v1.1h-63V389L114.5,229l0.5,233.1H0V0.1h85.7l163.9,246.8L413.4,0.1H499z"/>
</symbol><symbol id="Medill_M" viewBox="0 0 380 347">
<style type="text/css">
	.st0{fill:none;stroke:#000000;stroke-width:100;}
</style>
<path class="st0" d="M334.3,0v347.2"/>
<path d="M144.8,314.6L94.9,213.5L95-0.6L189.7,179L284.3-1.3L285,212l-50.4,102.6L144.8,314.6z"/>
<path class="st0" d="M45,347.2V0"/>
</symbol><symbol id="Medill_Slash" viewBox="0 0 545.9 539">
<polygon points="109.8,0 0,0 0,29.5 436.1,539 545.9,539 545.9,509.5 "/>
</symbol><symbol id="play" viewBox="0 0 72.6 72.6">
<path d="M36.3,0C16.3,0,0,16.2,0,36.3s16.2,36.3,36.3,36.3s36.3-16.2,36.3-36.3S56.3,0,36.3,0z M56.1,38.2L27.9,54.5
	c-1.4,0.8-3.2-0.2-3.2-1.9V20c0-1.6,1.8-2.7,3.2-1.9l28.2,16.3C57.6,35.3,57.6,37.3,56.1,38.2z"/>
</symbol><symbol id="quote" viewBox="0 0 209.1 139.6">
<g>
	<path d="M101.8,50.8C101.8,22.7,79.1,0,51,0S2.7,21.9,0.3,49.9c-3.6,42.6,28.8,78.3,68.1,89.7C55,131.5,45.6,117.4,44.1,101
		c2.3,0.3,4.6,0.6,7,0.6C79.1,101.5,101.8,78.8,101.8,50.8z"/>
	<path d="M209.1,50.8c0-28-22.7-50.8-50.8-50.8c-28,0-48.4,21.9-50.8,49.9c-3.6,42.6,28.8,78.3,68.1,89.7
		c-13.4-8.1-22.8-22.2-24.3-38.6c2.3,0.3,4.6,0.6,7,0.6C186.3,101.5,209.1,78.8,209.1,50.8z"/>
</g>
</symbol><symbol id="Social-LinkedIn" viewBox="0 0 24.8 22.6">
<path d="M5.9,2.7c0,1.5-1.1,2.7-3,2.7h0C1.1,5.3,0,4.1,0,2.7C0,1.1,1.2,0,3,0C4.7,0,5.8,1.1,5.9,2.7z M0.6,22.6h4.8V7.2H0.6V22.6z
	 M18.7,7.1c-2.8,0-4.5,1.5-4.8,2.6V7.2H8.4c0.1,1.3,0,15.3,0,15.3h5.4v-8.3c0-0.5,0-0.9,0.1-1.3c0.4-0.9,1.2-1.9,2.6-1.9
	c1.9,0,2.7,1.4,2.7,3.5v7.9h5.5V14C24.8,9.3,22.1,7.1,18.7,7.1z"/>
</symbol><symbol id="Social-Twitter" viewBox="0 0 20 16">
<title>Twitter</title>
<desc>Created with Sketch.</desc>
<g id="Symbols">
	<g id="Footer" transform="translate(-1080.000000, -273.000000)">
		<g id="Connect" transform="translate(1080.000000, 224.000000)">
			<g id="SM" transform="translate(0.000000, 49.000000)">
				<path id="Twitter" d="M20,1.9c-0.7,0.3-1.5,0.5-2.4,0.6c0.8-0.5,1.5-1.3,1.8-2.2c-0.8,0.5-1.7,0.8-2.6,1C16.1,0.5,15,0,13.8,0
					c-2.3,0-4.1,1.8-4.1,4c0,0.3,0,0.6,0.1,0.9C6.4,4.8,3.4,3.2,1.4,0.7C1,1.3,0.8,2,0.8,2.8c0,1.4,0.7,2.6,1.8,3.4
					C2,6.1,1.4,5.9,0.8,5.6v0c0,2,1.4,3.6,3.3,4C3.8,9.7,3.4,9.8,3,9.8c-0.3,0-0.5,0-0.8-0.1c0.5,1.6,2,2.8,3.8,2.8
					c-1.4,1.1-3.2,1.7-5.1,1.7c-0.3,0-0.7,0-1-0.1C1.8,15.3,4,16,6.3,16C13.8,16,18,9.8,18,4.5c0-0.2,0-0.4,0-0.5
					C18.8,3.4,19.5,2.7,20,1.9"/>
			</g>
		</g>
	</g>
</g>
</symbol></svg>