<svg xmlns="http://www.w3.org/2000/svg"><symbol id="arrow-left" viewBox="0 0 60.4 103.5"><path d="M51.6 103.5l8.8-8.8-42.9-42.9 42.9-43L51.6 0 0 51.7l.1.1H0z"/></symbol><symbol id="arrow-right" viewBox="0 0 60.4 103.5"><path d="M8.8 0L0 8.8l42.9 42.9L0 94.7l8.8 8.8 51.6-51.7-.1-.1h.1z"/></symbol><symbol id="arrow" viewBox="0 0 103.5 60.4"><path d="M103.5 8.8L94.7 0 51.8 42.9 8.8 0 0 8.8l51.7 51.6.1-.1v.1z"/></symbol><symbol id="close" viewBox="0 0 59 59"><path d="M59 7.8L51.2 0 29.5 21.7 7.8 0 0 7.8l21.7 21.7L0 51.2 7.8 59l21.7-21.7L51.2 59l7.8-7.8-21.7-21.7z"/></symbol><symbol id="hero_arrow" viewBox="0 0 56 56"><path d="M28 56C12.5 56 0 43.5 0 28S12.5 0 28 0s28 12.5 28 28-12.5 28-28 28zm0-52C14.7 4 4 14.7 4 28s10.7 24 24 24 24-10.7 24-24S41.3 4 28 4zm0 38v-9.9l-.3-.3-7.5-10.9c-.2-.4-.6-.7-1-.8H14c-1.3 0-1.7 1.2-.9 2.2l14 19.3c.3.2.6.4.9.4zm1-.5l14-19.3c.7-1 .3-2.2-.9-2.2h-5.2c-.4.1-.8.4-1 .8l-7.6 10.9-.3.3v10c.4-.1.7-.2 1-.5z"/></symbol><symbol id="logo" viewBox="0 0 133.4 25.6"><style>.st0{fill:#231f20}</style><path class="st0" d="M9.9 11.3V1.8l-3.5 9.4H5.2L1.7 1.7v9.6H.3V0h2l3.4 9.2L9.2 0h2v11.3H9.9zM13.7 11.3V0h7.6v1.3h-6.2v3.5h5.4v1.3h-5.4V10h6.2v1.3h-7.6zM29.9 10.2c-.8.8-1.9 1.1-3 1.1h-4V0h4c1.1 0 2.2.4 3 1.2 1.2 1.2 1.5 2.9 1.5 4.5s-.3 3.3-1.5 4.5zM29 2.1c-.5-.5-1.3-.8-2-.8h-2.5V10H27c.7 0 1.5-.3 2-.8.9-.9 1-2.4 1-3.6-.1-1.2-.2-2.6-1-3.5zM33.3 11.3V0h1.5v11.3h-1.5zM37.2 11.3V0h1.4v10H44v1.3h-6.8zM45.5 11.3V0h1.4v10h5.5v1.3h-6.9z"/><g><path class="st0" d="M3.1 18.4c-.3.3-.8.5-1.3.5s-1-.2-1.3-.4c-.3-.4-.5-.8-.5-1.2h.6c0 .3.1.5.3.7.2.2.5.3.9.3.3 0 .6-.1.8-.3.1-.1.2-.3.2-.5 0-.4-.2-.6-.8-.7l-.7-.1c-.7-.1-1.2-.5-1.2-1.2 0-.3.2-.7.4-.9.3-.3.7-.4 1.2-.4.4 0 .9.1 1.2.4.3.3.4.6.4 1h-.5c0-.2-.1-.4-.2-.6-.2-.2-.4-.3-.8-.3-.3 0-.6.1-.8.3-.1.1-.2.3-.2.5 0 .4.3.6.7.6.3 0 .5.1.8.1.8.1 1.3.6 1.3 1.3-.1.4-.3.6-.5.9zM7.1 18.3c-.3.3-.7.5-1.2.5s-.9-.2-1.2-.5c-.5-.5-.6-1.1-.6-1.9 0-.7.1-1.4.6-1.9.3-.3.8-.5 1.2-.5.5 0 .9.2 1.2.5.3.3.4.6.4 1h-.6c0-.2-.1-.5-.2-.6-.2-.2-.5-.3-.8-.3-.3 0-.6.1-.8.3-.4.4-.4 1-.4 1.5s0 1.1.4 1.5c.2.2.5.3.8.3.3 0 .6-.1.8-.3.1-.2.2-.4.2-.7h.6c0 .5-.1.9-.4 1.1zM11.1 18.7v-2.1H8.9v2.1h-.6v-4.5h.6v1.9h2.2v-1.9h.6v4.5h-.6zM15.6 18.3c-.3.3-.8.5-1.2.5-.5 0-.9-.2-1.2-.5-.5-.5-.6-1.1-.6-1.9 0-.7.1-1.4.6-1.9.3-.3.8-.5 1.2-.5.5 0 .9.2 1.2.5.5.5.6 1.1.6 1.9-.1.8-.1 1.4-.6 1.9zm-.4-3.3c-.2-.2-.5-.3-.8-.3-.3 0-.6.1-.8.3-.4.4-.4 1-.4 1.5s0 1.1.4 1.5c.2.2.5.3.8.3.3 0 .6-.1.8-.3.4-.4.4-1 .4-1.5s-.1-1.1-.4-1.5zM19.8 18.3c-.3.3-.8.5-1.2.5-.5 0-.9-.2-1.2-.5-.5-.5-.6-1.1-.6-1.9 0-.7.1-1.4.6-1.9.3-.3.8-.5 1.2-.5.5 0 .9.2 1.2.5.5.5.6 1.1.6 1.9 0 .8-.1 1.4-.6 1.9zm-.4-3.3c-.2-.2-.5-.3-.8-.3-.3 0-.6.1-.8.3-.4.4-.4 1-.4 1.5s0 1.1.4 1.5c.2.2.5.3.8.3.3 0 .6-.1.8-.3.4-.4.4-1 .4-1.5s0-1.1-.4-1.5zM21.3 18.7v-4.5h.6v4H24v.5h-2.7zM29.2 18.3c-.3.3-.8.5-1.2.5-.5 0-.9-.2-1.2-.5-.5-.5-.6-1.1-.6-1.9 0-.7.1-1.4.6-1.9.3-.3.8-.5 1.2-.5.5 0 .9.2 1.2.5.5.5.6 1.1.6 1.9 0 .8-.1 1.4-.6 1.9zm-.4-3.3c-.2-.2-.5-.3-.8-.3-.3 0-.6.1-.8.3-.4.4-.4 1-.4 1.5s0 1.1.4 1.5c.2.2.5.3.8.3.3 0 .6-.1.8-.3.4-.4.4-1 .4-1.5s-.1-1.1-.4-1.5zM31.2 14.7v1.5h2.1v.5h-2.1v2h-.6v-4.5h2.9v.5h-2.3zM36.8 18.8c-.4 0-.7-.1-1-.4-.3-.3-.4-.6-.4-1.1h.8c0 .2 0 .5.2.6.1.1.2.2.4.2.4 0 .6-.2.6-.6v-3.3h.8v3.2c-.1.9-.6 1.4-1.4 1.4zM42 18.3c-.3.3-.8.5-1.3.5s-1-.2-1.3-.5c-.5-.5-.6-1.1-.6-1.8s.1-1.4.6-1.8c.3-.3.8-.5 1.3-.5s1 .2 1.3.5c.5.5.6 1.1.6 1.8s-.1 1.3-.6 1.8zm-.6-3.1c-.2-.2-.5-.3-.7-.3-.3 0-.5.1-.7.3-.3.3-.3.9-.3 1.3s0 1 .3 1.3c.2.2.5.3.7.3.3 0 .5-.1.7-.3.3-.3.3-.9.3-1.3 0-.5 0-1-.3-1.3zM45 18.8c-1.2 0-1.8-.7-1.8-1.8v-2.8h.8V17c0 .6.3 1.1 1 1.1s1-.4 1-1.1v-2.8h.8V17c0 1.1-.6 1.8-1.8 1.8zM50.2 18.7l-.7-1.7h-1v1.7h-.8v-4.5h1.9c1.1 0 1.6.7 1.6 1.4 0 .6-.3 1.1-.8 1.3l.8 1.9h-1zm-.6-3.8h-1.1v1.4h1.1c.5 0 .7-.2.7-.7 0-.4-.3-.7-.7-.7zM54.6 18.7l-2-3.1v3.1h-.8v-4.5h.9l1.9 3.1v-3.1h.8v4.5h-.8zM59.2 18.7l-.3-.9h-1.8l-.3.9H56l1.6-4.5h.9l1.6 4.5h-.9zM58 15.2l-.6 1.9h1.3l-.7-1.9zM60.6 18.7v-4.5h.8V18h2.1v.8h-2.9zM64.1 18.7v-4.5h.8v4.5h-.8zM68.8 18.3c-.3.3-.9.5-1.4.5-.5 0-1-.1-1.4-.5-.3-.2-.5-.6-.5-1.1h.8c0 .2.1.4.2.6.2.2.5.2.8.2.3 0 .6-.1.8-.2.1-.1.2-.2.2-.4 0-.3-.3-.5-.5-.5-.3-.1-.7-.1-1-.1-.6-.1-1.2-.5-1.2-1.3 0-.4.2-.7.4-.9.3-.3.8-.5 1.3-.5s1 .2 1.3.4c.3.3.5.6.5 1h-.8c0-.2-.1-.3-.2-.4-.1-.2-.4-.2-.7-.2-.3 0-.6.1-.7.2-.1.1-.2.2-.2.4 0 .3.2.4.5.5.3 0 .7.1 1 .1.7.1 1.2.5 1.2 1.3 0 .4-.2.7-.4.9zM73.6 18.7v-3.2l-1.2 3.2h-.6l-1.2-3.2v3.3h-.8v-4.5H71l1.2 3.2 1.2-3.2h1.1v4.5h-.9zM75.6 19.8l-.2-.4c.4-.2.4-.4.4-.7h-.5v-1h1v.9c0 .6-.1 1-.7 1.2zM82.6 18.7v-3.2l-1.2 3.2h-.6l-1.2-3.2v3.3h-.8v-4.5h1.1l1.2 3.2 1.2-3.2h1.1v4.5h-.8zM84.3 18.7v-4.5h3.2v.7h-2.4V16h2.1v.7h-2.1V18h2.4v.7h-3.2zM91.3 18.2c-.3.3-.8.5-1.3.5h-1.8v-4.5H90c.5 0 1 .2 1.3.5.5.5.5 1.2.5 1.8 0 .6 0 1.3-.5 1.7zm-.6-3c-.2-.2-.4-.3-.6-.3h-.9V18h.8c.3 0 .5-.1.6-.3.3-.3.3-.9.3-1.3.1-.4.1-.9-.2-1.2zM92.6 18.7v-4.5h.8v4.5h-.8zM97.2 18.7l-.3-.9h-1.8l-.3.9H94l1.6-4.5h.9l1.6 4.5h-.9zM96 15.2l-.6 1.9h1.3l-.7-1.9zM.2 25.5V21H1v4.5H.2zM4.8 25.5l-2-3.1v3.1H2V21h.9l1.9 3.1V21h.8v4.5h-.8zM8.4 21.8v3.8h-.9v-3.8H6.2V21h3.5v.8H8.4zM10.2 25.5V21h3.2v.7H11v1.1h2.1v.7H11v1.2h2.4v.7h-3.2zM17.1 25.5L17 25c-.1.3-.6.6-1.1.6-.5 0-1-.1-1.4-.5-.5-.5-.6-1.1-.6-1.8s.1-1.3.6-1.8c.3-.3.9-.5 1.4-.5.6 0 1 .2 1.3.5.2.2.4.5.4.9h-.8c0-.2-.1-.3-.2-.4-.2-.2-.4-.3-.7-.3-.3 0-.6.1-.7.3-.3.3-.4.9-.4 1.3s0 1 .4 1.3c.2.2.5.3.7.3.3 0 .5-.1.7-.3.2-.3.3-.5.3-.9h-1.1V23h1.9v2.5h-.6zM21 25.5l-.8-1.7h-1v1.7h-.8V21h1.9c1.1 0 1.6.7 1.6 1.4 0 .6-.3 1.1-.8 1.3l.8 1.9H21zm-.6-3.8h-1.1v1.4h1.1c.5 0 .7-.2.7-.7 0-.4-.3-.7-.7-.7zM25.5 25.5l-.3-.9h-1.8l-.3.9h-.8l1.6-4.5h.9l1.6 4.5h-.9zM24.3 22l-.6 1.9H25l-.7-1.9zM28.2 21.8v3.8h-.8v-3.8H26V21h3.5v.8h-1.3zM30.1 25.5V21h3.2v.7h-2.4v1.1H33v.7h-2.1v1.2h2.4v.7h-3.2zM37 25c-.3.3-.8.5-1.3.5H34V21h1.8c.5 0 1 .2 1.3.5.5.5.5 1.2.5 1.8 0 .6-.1 1.3-.6 1.7zm-.6-3c-.2-.2-.4-.3-.6-.3h-.9v3.1h.9c.3 0 .5-.1.6-.3.3-.3.3-.9.3-1.3s0-.9-.3-1.2zM43.7 25.5v-3.2l-1.2 3.2h-.6l-1.2-3.2v3.3h-.8V21H41l1.2 3.2 1.2-3.2h1.1v4.5h-.8zM48.2 25.5l-.3-.9h-1.8l-.3.9H45l1.6-4.5h.9l1.6 4.5h-.9zM47 22l-.6 1.9h1.3L47 22zM52.2 25.5l-.8-1.7h-1v1.7h-.8V21h1.9c1.1 0 1.6.7 1.6 1.4 0 .6-.3 1.1-.8 1.3l.8 1.9h-.9zm-.7-3.8h-1.1v1.4h1.1c.5 0 .7-.2.7-.7.1-.4-.2-.7-.7-.7zM56.6 25.5l-1.2-2.1-.8.9v1.2h-.8V21h.8v2.1l1.8-2.1h1L56 22.7l1.6 2.8h-1zM58.1 25.5V21h3.2v.7H59v1.1h2.1v.7H59v1.2h2.4v.7h-3.3zM63.9 21.8v3.8h-.8v-3.8h-1.3V21h3.5v.8h-1.4zM65.8 25.5V21h.8v4.5h-.8zM70.4 25.5l-2-3.1v3.1h-.8V21h.9l1.9 3.1V21h.8v4.5h-.8zM75.1 25.5L75 25c-.1.3-.6.6-1.1.6-.5 0-1-.1-1.3-.5-.5-.5-.6-1.1-.6-1.8s.1-1.3.6-1.8c.3-.3.9-.5 1.3-.5.6 0 1 .2 1.3.5.2.2.4.5.4.9h-.8c0-.2-.1-.3-.2-.4-.2-.2-.4-.3-.7-.3-.3 0-.6.1-.7.3-.3.3-.4.9-.4 1.3s0 1 .4 1.3c.2.2.5.3.7.3.3 0 .5-.1.7-.3.2-.3.3-.5.3-.9h-1.1V23h1.9v2.5h-.6zM81 25.1c-.3.3-.8.5-1.3.5s-.9-.2-1.3-.5c-.5-.5-.6-1.1-.6-1.8s.1-1.3.6-1.8c.3-.3.8-.5 1.3-.5s1 .2 1.3.5c.3.3.4.6.4 1h-.8c0-.2-.1-.3-.2-.5s-.4-.3-.7-.3c-.3 0-.5.1-.7.3-.3.3-.3.9-.3 1.3s0 1 .3 1.3c.2.2.4.3.7.3.3 0 .5-.1.7-.3.1-.1.2-.3.2-.5h.8c0 .3-.1.7-.4 1zM85.1 25.1c-.3.3-.8.5-1.3.5s-1-.2-1.3-.5c-.5-.5-.6-1.1-.6-1.8s.1-1.3.6-1.8c.3-.3.8-.5 1.3-.5s1 .2 1.3.5c.5.5.6 1.1.6 1.8s-.1 1.3-.6 1.8zm-.6-3.1c-.2-.2-.5-.3-.7-.3-.3 0-.5.1-.7.3-.3.3-.3.9-.3 1.3s0 1 .3 1.3c.2.2.5.3.7.3.3 0 .5-.1.7-.3.3-.3.3-.9.3-1.3s0-1-.3-1.3zM90.2 25.5v-3.2L89 25.5h-.6l-1.2-3.2v3.3h-.8V21h1.1l1.2 3.2 1.2-3.2H91v4.5h-.8zM95.7 25.5v-3.2l-1.2 3.2h-.6l-1.2-3.2v3.3h-.8V21H93l1.2 3.2 1.2-3.2h1.1v4.5h-.8zM99.1 25.6c-1.2 0-1.8-.7-1.8-1.8V21h.8v2.8c0 .6.3 1.1 1 1.1s1-.4 1-1.1V21h.8v2.8c0 1.1-.6 1.8-1.8 1.8zM104.6 25.5l-2-3.1v3.1h-.8V21h.9l1.9 3.1V21h.8v4.5h-.8zM106.3 25.5V21h.8v4.5h-.8zM111.1 25.1c-.3.3-.8.5-1.3.5s-.9-.2-1.3-.5c-.5-.5-.6-1.1-.6-1.8s.1-1.3.6-1.8c.3-.3.8-.5 1.3-.5s1 .2 1.3.5c.3.3.4.6.4 1h-.8c0-.2-.1-.3-.2-.5s-.4-.3-.7-.3c-.3 0-.5.1-.7.3-.3.3-.3.9-.3 1.3s0 1 .3 1.3c.2.2.4.3.7.3.3 0 .5-.1.7-.3.1-.1.2-.3.2-.5h.8c0 .3-.2.7-.4 1zM114.9 25.5l-.3-.9h-1.8l-.3.9h-.8l1.6-4.5h.9l1.6 4.5h-.9zm-1.2-3.5l-.6 1.9h1.3l-.7-1.9zM117.5 21.8v3.8h-.8v-3.8h-1.3V21h3.5v.8h-1.4zM119.4 25.5V21h.8v4.5h-.8zM124.2 25.1c-.3.3-.8.5-1.3.5s-1-.2-1.3-.5c-.5-.5-.6-1.1-.6-1.8s.1-1.3.6-1.8c.3-.3.8-.5 1.3-.5s1 .2 1.3.5c.5.5.6 1.1.6 1.8-.1.7-.1 1.3-.6 1.8zm-.6-3.1c-.2-.2-.5-.3-.7-.3-.3 0-.5.1-.7.3-.3.3-.3.9-.3 1.3s0 1 .3 1.3c.2.2.5.3.7.3.3 0 .5-.1.7-.3.3-.3.3-.9.3-1.3s0-1-.3-1.3zM128.3 25.5l-2-3.1v3.1h-.8V21h.9l1.9 3.1V21h.8v4.5h-.8zM133 25.1c-.3.3-.9.5-1.4.5-.5 0-1-.1-1.4-.5-.3-.2-.5-.6-.5-1.1h.8c0 .2.1.4.2.6.2.2.5.2.8.2.3 0 .6-.1.8-.2.1-.1.2-.2.2-.4 0-.3-.3-.5-.5-.5-.3-.1-.7-.1-1-.1-.6-.1-1.2-.5-1.2-1.3 0-.4.2-.7.4-.9.3-.3.8-.5 1.3-.5s1 .2 1.3.4c.3.3.5.6.5 1h-.8c0-.2-.1-.3-.2-.4-.1-.2-.4-.2-.7-.2-.3 0-.5.1-.7.2-.1.1-.2.2-.2.4 0 .3.2.4.5.5.3 0 .7.1 1 .1.7.1 1.2.5 1.2 1.3 0 .4-.1.7-.4.9z"/></g><path class="st0" d="M99 19.9l-.2-.4c.4-.2.4-.4.4-.7h-.5v-1h1v.9c0 .6-.1 1-.7 1.2z"/></symbol><symbol id="M" viewBox="0 0 499.1 462.4"><path d="M499 .1v462H384V230.5L281 389v1.1h-63V389L114.5 229l.5 233.1H0V.1h85.7l163.9 246.8L413.4.1H499z"/></symbol><symbol id="Medill_M" viewBox="0 0 380 347"><style>.st0{fill:none;stroke:#000;stroke-width:100}</style><path class="st0" d="M334.3 0v347.2"/><path d="M144.8 314.6L94.9 213.5 95-.6 189.7 179 284.3-1.3 285 212l-50.4 102.6h-89.8z"/><path class="st0" d="M45 347.2V0"/></symbol><symbol id="Medill_Slash" viewBox="0 0 545.9 539"><path d="M109.8 0H0v29.5L436.1 539h109.8v-29.5z"/></symbol><symbol id="play" viewBox="0 0 72.6 72.6"><path d="M36.3 0C16.3 0 0 16.2 0 36.3s16.2 36.3 36.3 36.3 36.3-16.2 36.3-36.3S56.3 0 36.3 0zm19.8 38.2L27.9 54.5c-1.4.8-3.2-.2-3.2-1.9V20c0-1.6 1.8-2.7 3.2-1.9l28.2 16.3c1.5.9 1.5 2.9 0 3.8z"/></symbol><symbol id="quote" viewBox="0 0 209.1 139.6"><path d="M101.8 50.8C101.8 22.7 79.1 0 51 0S2.7 21.9.3 49.9c-3.6 42.6 28.8 78.3 68.1 89.7-13.4-8.1-22.8-22.2-24.3-38.6 2.3.3 4.6.6 7 .6 28-.1 50.7-22.8 50.7-50.8zM209.1 50.8c0-28-22.7-50.8-50.8-50.8-28 0-48.4 21.9-50.8 49.9-3.6 42.6 28.8 78.3 68.1 89.7-13.4-8.1-22.8-22.2-24.3-38.6 2.3.3 4.6.6 7 .6 28-.1 50.8-22.8 50.8-50.8z"/></symbol><symbol id="Social-LinkedIn" viewBox="0 0 24.8 22.6"><path d="M5.9 2.7c0 1.5-1.1 2.7-3 2.7C1.1 5.3 0 4.1 0 2.7 0 1.1 1.2 0 3 0c1.7 0 2.8 1.1 2.9 2.7zM.6 22.6h4.8V7.2H.6v15.4zM18.7 7.1c-2.8 0-4.5 1.5-4.8 2.6V7.2H8.4c.1 1.3 0 15.3 0 15.3h5.4v-8.3c0-.5 0-.9.1-1.3.4-.9 1.2-1.9 2.6-1.9 1.9 0 2.7 1.4 2.7 3.5v7.9h5.5V14c.1-4.7-2.6-6.9-6-6.9z"/></symbol><symbol id="Social-Twitter" viewBox="0 0 20 16"><path d="M20 1.9c-.7.3-1.5.5-2.4.6.8-.5 1.5-1.3 1.8-2.2-.8.5-1.7.8-2.6 1C16.1.5 15 0 13.8 0c-2.3 0-4.1 1.8-4.1 4 0 .3 0 .6.1.9C6.4 4.8 3.4 3.2 1.4.7 1 1.3.8 2 .8 2.8c0 1.4.7 2.6 1.8 3.4-.6-.1-1.2-.3-1.8-.6 0 2 1.4 3.6 3.3 4-.3.1-.7.2-1.1.2-.3 0-.5 0-.8-.1.5 1.6 2 2.8 3.8 2.8-1.4 1.1-3.2 1.7-5.1 1.7-.3 0-.7 0-1-.1C1.8 15.3 4 16 6.3 16 13.8 16 18 9.8 18 4.5V4c.8-.6 1.5-1.3 2-2.1"/></symbol></svg>