<?xml version="1.0" encoding="utf-8"?>
<!-- Generator: Adobe Illustrator 20.1.0, SVG Export Plug-In . SVG Version: 6.00 Build 0)  -->
<svg version="1.1" id="Layer_1" xmlns="http://www.w3.org/2000/svg" xmlns:xlink="http://www.w3.org/1999/xlink" x="0px" y="0px"
	 viewBox="0 0 133.4 25.6" style="enable-background:new 0 0 133.4 25.6;" xml:space="preserve">
<style type="text/css">
	.st0{fill:#231F20;}
</style>
<g>
	<g>
		<path class="st0" d="M9.9,11.3V1.8l-3.5,9.4H5.2L1.7,1.7v9.6H0.3V0h2l3.4,9.2L9.2,0h2v11.3H9.9z"/>
		<path class="st0" d="M13.7,11.3V0h7.6v1.3h-6.2v3.5h5.4v1.3h-5.4V10h6.2v1.3H13.7z"/>
		<path class="st0" d="M29.9,10.2c-0.8,0.8-1.9,1.1-3,1.1h-4V0h4c1.1,0,2.2,0.4,3,1.2c1.2,1.2,1.5,2.9,1.5,4.5
			C31.4,7.3,31.1,9,29.9,10.2z M29,2.1c-0.5-0.5-1.3-0.8-2-0.8h-2.5V10h2.5c0.7,0,1.5-0.3,2-0.8c0.9-0.9,1-2.4,1-3.6
			C29.9,4.4,29.8,3,29,2.1z"/>
		<path class="st0" d="M33.3,11.3V0h1.5v11.3H33.3z"/>
		<path class="st0" d="M37.2,11.3V0h1.4v10H44v1.3H37.2z"/>
		<path class="st0" d="M45.5,11.3V0h1.4v10h5.5v1.3H45.5z"/>
	</g>
</g>
<g>
	<g>
		<path class="st0" d="M3.1,18.4c-0.3,0.3-0.8,0.5-1.3,0.5c-0.5,0-1-0.2-1.3-0.4C0.2,18.1,0,17.7,0,17.3h0.6c0,0.3,0.1,0.5,0.3,0.7
			c0.2,0.2,0.5,0.3,0.9,0.3c0.3,0,0.6-0.1,0.8-0.3c0.1-0.1,0.2-0.3,0.2-0.5c0-0.4-0.2-0.6-0.8-0.7l-0.7-0.1
			c-0.7-0.1-1.2-0.5-1.2-1.2c0-0.3,0.2-0.7,0.4-0.9c0.3-0.3,0.7-0.4,1.2-0.4c0.4,0,0.9,0.1,1.2,0.4c0.3,0.3,0.4,0.6,0.4,1H2.8
			c0-0.2-0.1-0.4-0.2-0.6c-0.2-0.2-0.4-0.3-0.8-0.3c-0.3,0-0.6,0.1-0.8,0.3c-0.1,0.1-0.2,0.3-0.2,0.5c0,0.4,0.3,0.6,0.7,0.6
			c0.3,0,0.5,0.1,0.8,0.1c0.8,0.1,1.3,0.6,1.3,1.3C3.5,17.9,3.3,18.1,3.1,18.4z"/>
		<path class="st0" d="M7.1,18.3c-0.3,0.3-0.7,0.5-1.2,0.5c-0.5,0-0.9-0.2-1.2-0.5c-0.5-0.5-0.6-1.1-0.6-1.9c0-0.7,0.1-1.4,0.6-1.9
			c0.3-0.3,0.8-0.5,1.2-0.5c0.5,0,0.9,0.2,1.2,0.5c0.3,0.3,0.4,0.6,0.4,1H6.9c0-0.2-0.1-0.5-0.2-0.6c-0.2-0.2-0.5-0.3-0.8-0.3
			c-0.3,0-0.6,0.1-0.8,0.3c-0.4,0.4-0.4,1-0.4,1.5c0,0.5,0,1.1,0.4,1.5c0.2,0.2,0.5,0.3,0.8,0.3c0.3,0,0.6-0.1,0.8-0.3
			c0.1-0.2,0.2-0.4,0.2-0.7h0.6C7.5,17.7,7.4,18.1,7.1,18.3z"/>
		<path class="st0" d="M11.1,18.7v-2.1H8.9v2.1H8.3v-4.5h0.6v1.9h2.2v-1.9h0.6v4.5H11.1z"/>
		<path class="st0" d="M15.6,18.3c-0.3,0.3-0.8,0.5-1.2,0.5c-0.5,0-0.9-0.2-1.2-0.5c-0.5-0.5-0.6-1.1-0.6-1.9c0-0.7,0.1-1.4,0.6-1.9
			c0.3-0.3,0.8-0.5,1.2-0.5c0.5,0,0.9,0.2,1.2,0.5c0.5,0.5,0.6,1.1,0.6,1.9C16.1,17.2,16.1,17.8,15.6,18.3z M15.2,15
			c-0.2-0.2-0.5-0.3-0.8-0.3c-0.3,0-0.6,0.1-0.8,0.3c-0.4,0.4-0.4,1-0.4,1.5c0,0.5,0,1.1,0.4,1.5c0.2,0.2,0.5,0.3,0.8,0.3
			c0.3,0,0.6-0.1,0.8-0.3c0.4-0.4,0.4-1,0.4-1.5C15.6,16,15.5,15.4,15.2,15z"/>
		<path class="st0" d="M19.8,18.3c-0.3,0.3-0.8,0.5-1.2,0.5c-0.5,0-0.9-0.2-1.2-0.5c-0.5-0.5-0.6-1.1-0.6-1.9c0-0.7,0.1-1.4,0.6-1.9
			c0.3-0.3,0.8-0.5,1.2-0.5c0.5,0,0.9,0.2,1.2,0.5c0.5,0.5,0.6,1.1,0.6,1.9C20.4,17.2,20.3,17.8,19.8,18.3z M19.4,15
			c-0.2-0.2-0.5-0.3-0.8-0.3c-0.3,0-0.6,0.1-0.8,0.3c-0.4,0.4-0.4,1-0.4,1.5c0,0.5,0,1.1,0.4,1.5c0.2,0.2,0.5,0.3,0.8,0.3
			c0.3,0,0.6-0.1,0.8-0.3c0.4-0.4,0.4-1,0.4-1.5C19.8,16,19.8,15.4,19.4,15z"/>
		<path class="st0" d="M21.3,18.7v-4.5h0.6v4H24v0.5H21.3z"/>
		<path class="st0" d="M29.2,18.3c-0.3,0.3-0.8,0.5-1.2,0.5c-0.5,0-0.9-0.2-1.2-0.5c-0.5-0.5-0.6-1.1-0.6-1.9c0-0.7,0.1-1.4,0.6-1.9
			c0.3-0.3,0.8-0.5,1.2-0.5c0.5,0,0.9,0.2,1.2,0.5c0.5,0.5,0.6,1.1,0.6,1.9C29.8,17.2,29.7,17.8,29.2,18.3z M28.8,15
			c-0.2-0.2-0.5-0.3-0.8-0.3c-0.3,0-0.6,0.1-0.8,0.3c-0.4,0.4-0.4,1-0.4,1.5c0,0.5,0,1.1,0.4,1.5c0.2,0.2,0.5,0.3,0.8,0.3
			c0.3,0,0.6-0.1,0.8-0.3c0.4-0.4,0.4-1,0.4-1.5C29.2,16,29.1,15.4,28.8,15z"/>
		<path class="st0" d="M31.2,14.7v1.5h2.1v0.5h-2.1v2h-0.6v-4.5h2.9v0.5H31.2z"/>
		<path class="st0" d="M36.8,18.8c-0.4,0-0.7-0.1-1-0.4c-0.3-0.3-0.4-0.6-0.4-1.1h0.8c0,0.2,0,0.5,0.2,0.6c0.1,0.1,0.2,0.2,0.4,0.2
			c0.4,0,0.6-0.2,0.6-0.6v-3.3h0.8v3.2C38.1,18.3,37.6,18.8,36.8,18.8z"/>
		<path class="st0" d="M42,18.3c-0.3,0.3-0.8,0.5-1.3,0.5c-0.5,0-1-0.2-1.3-0.5c-0.5-0.5-0.6-1.1-0.6-1.8c0-0.7,0.1-1.4,0.6-1.8
			c0.3-0.3,0.8-0.5,1.3-0.5c0.5,0,1,0.2,1.3,0.5c0.5,0.5,0.6,1.1,0.6,1.8C42.6,17.2,42.5,17.8,42,18.3z M41.4,15.2
			c-0.2-0.2-0.5-0.3-0.7-0.3c-0.3,0-0.5,0.1-0.7,0.3c-0.3,0.3-0.3,0.9-0.3,1.3c0,0.4,0,1,0.3,1.3c0.2,0.2,0.5,0.3,0.7,0.3
			c0.3,0,0.5-0.1,0.7-0.3c0.3-0.3,0.3-0.9,0.3-1.3C41.7,16,41.7,15.5,41.4,15.2z"/>
		<path class="st0" d="M45,18.8c-1.2,0-1.8-0.7-1.8-1.8v-2.8H44V17c0,0.6,0.3,1.1,1,1.1c0.7,0,1-0.4,1-1.1v-2.8h0.8V17
			C46.8,18.1,46.2,18.8,45,18.8z"/>
		<path class="st0" d="M50.2,18.7L49.5,17h-1v1.7h-0.8v-4.5h1.9c1.1,0,1.6,0.7,1.6,1.4c0,0.6-0.3,1.1-0.8,1.3l0.8,1.9H50.2z
			 M49.6,14.9h-1.1v1.4h1.1c0.5,0,0.7-0.2,0.7-0.7C50.3,15.2,50,14.9,49.6,14.9z"/>
		<path class="st0" d="M54.6,18.7l-2-3.1v3.1h-0.8v-4.5h0.9l1.9,3.1v-3.1h0.8v4.5H54.6z"/>
		<path class="st0" d="M59.2,18.7l-0.3-0.9h-1.8l-0.3,0.9H56l1.6-4.5h0.9l1.6,4.5H59.2z M58,15.2l-0.6,1.9h1.3L58,15.2z"/>
		<path class="st0" d="M60.6,18.7v-4.5h0.8v3.8h2.1v0.8H60.6z"/>
		<path class="st0" d="M64.1,18.7v-4.5h0.8v4.5H64.1z"/>
		<path class="st0" d="M68.8,18.3c-0.3,0.3-0.9,0.5-1.4,0.5c-0.5,0-1-0.1-1.4-0.5c-0.3-0.2-0.5-0.6-0.5-1.1h0.8
			c0,0.2,0.1,0.4,0.2,0.6c0.2,0.2,0.5,0.2,0.8,0.2c0.3,0,0.6-0.1,0.8-0.2c0.1-0.1,0.2-0.2,0.2-0.4c0-0.3-0.3-0.5-0.5-0.5
			c-0.3-0.1-0.7-0.1-1-0.1c-0.6-0.1-1.2-0.5-1.2-1.3c0-0.4,0.2-0.7,0.4-0.9c0.3-0.3,0.8-0.5,1.3-0.5c0.5,0,1,0.2,1.3,0.4
			c0.3,0.3,0.5,0.6,0.5,1h-0.8c0-0.2-0.1-0.3-0.2-0.4c-0.1-0.2-0.4-0.2-0.7-0.2c-0.3,0-0.6,0.1-0.7,0.2c-0.1,0.1-0.2,0.2-0.2,0.4
			c0,0.3,0.2,0.4,0.5,0.5c0.3,0,0.7,0.1,1,0.1c0.7,0.1,1.2,0.5,1.2,1.3C69.2,17.8,69,18.1,68.8,18.3z"/>
		<path class="st0" d="M73.6,18.7v-3.2l-1.2,3.2h-0.6l-1.2-3.2v3.3h-0.8v-4.5H71l1.2,3.2l1.2-3.2h1.1v4.5H73.6z"/>
		<path class="st0" d="M75.6,19.8l-0.2-0.4c0.4-0.2,0.4-0.4,0.4-0.7h-0.5v-1h1v0.9C76.3,19.2,76.2,19.6,75.6,19.8z"/>
		<path class="st0" d="M82.6,18.7v-3.2l-1.2,3.2h-0.6l-1.2-3.2v3.3h-0.8v-4.5h1.1l1.2,3.2l1.2-3.2h1.1v4.5H82.6z"/>
		<path class="st0" d="M84.3,18.7v-4.5h3.2v0.7h-2.4V16h2.1v0.7h-2.1V18h2.4v0.7H84.3z"/>
		<path class="st0" d="M91.3,18.2c-0.3,0.3-0.8,0.5-1.3,0.5h-1.8v-4.5H90c0.5,0,1,0.2,1.3,0.5c0.5,0.5,0.5,1.2,0.5,1.8
			C91.8,17.1,91.8,17.8,91.3,18.2z M90.7,15.2c-0.2-0.2-0.4-0.3-0.6-0.3h-0.9V18H90c0.3,0,0.5-0.1,0.6-0.3c0.3-0.3,0.3-0.9,0.3-1.3
			C91,16,91,15.5,90.7,15.2z"/>
		<path class="st0" d="M92.6,18.7v-4.5h0.8v4.5H92.6z"/>
		<path class="st0" d="M97.2,18.7l-0.3-0.9h-1.8l-0.3,0.9h-0.8l1.6-4.5h0.9l1.6,4.5H97.2z M96,15.2l-0.6,1.9h1.3L96,15.2z"/>
		<path class="st0" d="M0.2,25.5V21h0.8v4.5H0.2z"/>
		<path class="st0" d="M4.8,25.5l-2-3.1v3.1H2V21h0.9l1.9,3.1V21h0.8v4.5H4.8z"/>
		<path class="st0" d="M8.4,21.8v3.8H7.5v-3.8H6.2V21h3.5v0.8H8.4z"/>
		<path class="st0" d="M10.2,25.5V21h3.2v0.7h-2.4v1.1h2.1v0.7h-2.1v1.2h2.4v0.7H10.2z"/>
		<path class="st0" d="M17.1,25.5L17,25c-0.1,0.3-0.6,0.6-1.1,0.6c-0.5,0-1-0.1-1.4-0.5c-0.5-0.5-0.6-1.1-0.6-1.8
			c0-0.7,0.1-1.3,0.6-1.8c0.3-0.3,0.9-0.5,1.4-0.5c0.6,0,1,0.2,1.3,0.5c0.2,0.2,0.4,0.5,0.4,0.9h-0.8c0-0.2-0.1-0.3-0.2-0.4
			c-0.2-0.2-0.4-0.3-0.7-0.3c-0.3,0-0.6,0.1-0.7,0.3c-0.3,0.3-0.4,0.9-0.4,1.3s0,1,0.4,1.3c0.2,0.2,0.5,0.3,0.7,0.3
			c0.3,0,0.5-0.1,0.7-0.3c0.2-0.3,0.3-0.5,0.3-0.9h-1.1V23h1.9v2.5H17.1z"/>
		<path class="st0" d="M21,25.5l-0.8-1.7h-1v1.7h-0.8V21h1.9c1.1,0,1.6,0.7,1.6,1.4c0,0.6-0.3,1.1-0.8,1.3l0.8,1.9H21z M20.4,21.7
			h-1.1v1.4h1.1c0.5,0,0.7-0.2,0.7-0.7C21.1,22,20.8,21.7,20.4,21.7z"/>
		<path class="st0" d="M25.5,25.5l-0.3-0.9h-1.8l-0.3,0.9h-0.8l1.6-4.5h0.9l1.6,4.5H25.5z M24.3,22l-0.6,1.9H25L24.3,22z"/>
		<path class="st0" d="M28.2,21.8v3.8h-0.8v-3.8H26V21h3.5v0.8H28.2z"/>
		<path class="st0" d="M30.1,25.5V21h3.2v0.7h-2.4v1.1H33v0.7h-2.1v1.2h2.4v0.7H30.1z"/>
		<path class="st0" d="M37,25c-0.3,0.3-0.8,0.5-1.3,0.5H34V21h1.8c0.5,0,1,0.2,1.3,0.5c0.5,0.5,0.5,1.2,0.5,1.8
			C37.6,23.9,37.5,24.6,37,25z M36.4,22c-0.2-0.2-0.4-0.3-0.6-0.3h-0.9v3.1h0.9c0.3,0,0.5-0.1,0.6-0.3c0.3-0.3,0.3-0.9,0.3-1.3
			C36.7,22.8,36.7,22.3,36.4,22z"/>
		<path class="st0" d="M43.7,25.5v-3.2l-1.2,3.2h-0.6l-1.2-3.2v3.3h-0.8V21H41l1.2,3.2l1.2-3.2h1.1v4.5H43.7z"/>
		<path class="st0" d="M48.2,25.5l-0.3-0.9h-1.8l-0.3,0.9H45l1.6-4.5h0.9l1.6,4.5H48.2z M47,22l-0.6,1.9h1.3L47,22z"/>
		<path class="st0" d="M52.2,25.5l-0.8-1.7h-1v1.7h-0.8V21h1.9c1.1,0,1.6,0.7,1.6,1.4c0,0.6-0.3,1.1-0.8,1.3l0.8,1.9H52.2z
			 M51.5,21.7h-1.1v1.4h1.1c0.5,0,0.7-0.2,0.7-0.7C52.3,22,52,21.7,51.5,21.7z"/>
		<path class="st0" d="M56.6,25.5l-1.2-2.1l-0.8,0.9v1.2h-0.8V21h0.8v2.1l1.8-2.1h1L56,22.7l1.6,2.8H56.6z"/>
		<path class="st0" d="M58.1,25.5V21h3.2v0.7H59v1.1h2.1v0.7H59v1.2h2.4v0.7H58.1z"/>
		<path class="st0" d="M63.9,21.8v3.8h-0.8v-3.8h-1.3V21h3.5v0.8H63.9z"/>
		<path class="st0" d="M65.8,25.5V21h0.8v4.5H65.8z"/>
		<path class="st0" d="M70.4,25.5l-2-3.1v3.1h-0.8V21h0.9l1.9,3.1V21h0.8v4.5H70.4z"/>
		<path class="st0" d="M75.1,25.5L75,25c-0.1,0.3-0.6,0.6-1.1,0.6c-0.5,0-1-0.1-1.3-0.5C72.1,24.6,72,24,72,23.3
			c0-0.7,0.1-1.3,0.6-1.8c0.3-0.3,0.9-0.5,1.3-0.5c0.6,0,1,0.2,1.3,0.5c0.2,0.2,0.4,0.5,0.4,0.9h-0.8c0-0.2-0.1-0.3-0.2-0.4
			c-0.2-0.2-0.4-0.3-0.7-0.3c-0.3,0-0.6,0.1-0.7,0.3c-0.3,0.3-0.4,0.9-0.4,1.3s0,1,0.4,1.3c0.2,0.2,0.5,0.3,0.7,0.3
			c0.3,0,0.5-0.1,0.7-0.3c0.2-0.3,0.3-0.5,0.3-0.9h-1.1V23h1.9v2.5H75.1z"/>
		<path class="st0" d="M81,25.1c-0.3,0.3-0.8,0.5-1.3,0.5s-0.9-0.2-1.3-0.5c-0.5-0.5-0.6-1.1-0.6-1.8c0-0.7,0.1-1.3,0.6-1.8
			c0.3-0.3,0.8-0.5,1.3-0.5s1,0.2,1.3,0.5c0.3,0.3,0.4,0.6,0.4,1h-0.8c0-0.2-0.1-0.3-0.2-0.5c-0.1-0.2-0.4-0.3-0.7-0.3
			c-0.3,0-0.5,0.1-0.7,0.3c-0.3,0.3-0.3,0.9-0.3,1.3s0,1,0.3,1.3c0.2,0.2,0.4,0.3,0.7,0.3c0.3,0,0.5-0.1,0.7-0.3
			c0.1-0.1,0.2-0.3,0.2-0.5h0.8C81.4,24.4,81.3,24.8,81,25.1z"/>
		<path class="st0" d="M85.1,25.1c-0.3,0.3-0.8,0.5-1.3,0.5s-1-0.2-1.3-0.5c-0.5-0.5-0.6-1.1-0.6-1.8c0-0.7,0.1-1.3,0.6-1.8
			c0.3-0.3,0.8-0.5,1.3-0.5s1,0.2,1.3,0.5c0.5,0.5,0.6,1.1,0.6,1.8C85.7,24,85.6,24.6,85.1,25.1z M84.5,22c-0.2-0.2-0.5-0.3-0.7-0.3
			c-0.3,0-0.5,0.1-0.7,0.3c-0.3,0.3-0.3,0.9-0.3,1.3s0,1,0.3,1.3c0.2,0.2,0.5,0.3,0.7,0.3c0.3,0,0.5-0.1,0.7-0.3
			c0.3-0.3,0.3-0.9,0.3-1.3S84.8,22.3,84.5,22z"/>
		<path class="st0" d="M90.2,25.5v-3.2L89,25.5h-0.6l-1.2-3.2v3.3h-0.8V21h1.1l1.2,3.2l1.2-3.2H91v4.5H90.2z"/>
		<path class="st0" d="M95.7,25.5v-3.2l-1.2,3.2h-0.6l-1.2-3.2v3.3h-0.8V21H93l1.2,3.2l1.2-3.2h1.1v4.5H95.7z"/>
		<path class="st0" d="M99.1,25.6c-1.2,0-1.8-0.7-1.8-1.8V21h0.8v2.8c0,0.6,0.3,1.1,1,1.1c0.7,0,1-0.4,1-1.1V21h0.8v2.8
			C100.9,24.9,100.3,25.6,99.1,25.6z"/>
		<path class="st0" d="M104.6,25.5l-2-3.1v3.1h-0.8V21h0.9l1.9,3.1V21h0.8v4.5H104.6z"/>
		<path class="st0" d="M106.3,25.5V21h0.8v4.5H106.3z"/>
		<path class="st0" d="M111.1,25.1c-0.3,0.3-0.8,0.5-1.3,0.5c-0.5,0-0.9-0.2-1.3-0.5c-0.5-0.5-0.6-1.1-0.6-1.8
			c0-0.7,0.1-1.3,0.6-1.8c0.3-0.3,0.8-0.5,1.3-0.5c0.5,0,1,0.2,1.3,0.5c0.3,0.3,0.4,0.6,0.4,1h-0.8c0-0.2-0.1-0.3-0.2-0.5
			c-0.1-0.2-0.4-0.3-0.7-0.3c-0.3,0-0.5,0.1-0.7,0.3c-0.3,0.3-0.3,0.9-0.3,1.3s0,1,0.3,1.3c0.2,0.2,0.4,0.3,0.7,0.3
			c0.3,0,0.5-0.1,0.7-0.3c0.1-0.1,0.2-0.3,0.2-0.5h0.8C111.5,24.4,111.3,24.8,111.1,25.1z"/>
		<path class="st0" d="M114.9,25.5l-0.3-0.9h-1.8l-0.3,0.9h-0.8l1.6-4.5h0.9l1.6,4.5H114.9z M113.7,22l-0.6,1.9h1.3L113.7,22z"/>
		<path class="st0" d="M117.5,21.8v3.8h-0.8v-3.8h-1.3V21h3.5v0.8H117.5z"/>
		<path class="st0" d="M119.4,25.5V21h0.8v4.5H119.4z"/>
		<path class="st0" d="M124.2,25.1c-0.3,0.3-0.8,0.5-1.3,0.5c-0.5,0-1-0.2-1.3-0.5c-0.5-0.5-0.6-1.1-0.6-1.8c0-0.7,0.1-1.3,0.6-1.8
			c0.3-0.3,0.8-0.5,1.3-0.5c0.5,0,1,0.2,1.3,0.5c0.5,0.5,0.6,1.1,0.6,1.8C124.7,24,124.7,24.6,124.2,25.1z M123.6,22
			c-0.2-0.2-0.5-0.3-0.7-0.3c-0.3,0-0.5,0.1-0.7,0.3c-0.3,0.3-0.3,0.9-0.3,1.3s0,1,0.3,1.3c0.2,0.2,0.5,0.3,0.7,0.3
			c0.3,0,0.5-0.1,0.7-0.3c0.3-0.3,0.3-0.9,0.3-1.3S123.9,22.3,123.6,22z"/>
		<path class="st0" d="M128.3,25.5l-2-3.1v3.1h-0.8V21h0.9l1.9,3.1V21h0.8v4.5H128.3z"/>
		<path class="st0" d="M133,25.1c-0.3,0.3-0.9,0.5-1.4,0.5c-0.5,0-1-0.1-1.4-0.5c-0.3-0.2-0.5-0.6-0.5-1.1h0.8
			c0,0.2,0.1,0.4,0.2,0.6c0.2,0.2,0.5,0.2,0.8,0.2c0.3,0,0.6-0.1,0.8-0.2c0.1-0.1,0.2-0.2,0.2-0.4c0-0.3-0.3-0.5-0.5-0.5
			c-0.3-0.1-0.7-0.1-1-0.1c-0.6-0.1-1.2-0.5-1.2-1.3c0-0.4,0.2-0.7,0.4-0.9c0.3-0.3,0.8-0.5,1.3-0.5c0.5,0,1,0.2,1.3,0.4
			c0.3,0.3,0.5,0.6,0.5,1h-0.8c0-0.2-0.1-0.3-0.2-0.4c-0.1-0.2-0.4-0.2-0.7-0.2c-0.3,0-0.5,0.1-0.7,0.2c-0.1,0.1-0.2,0.2-0.2,0.4
			c0,0.3,0.2,0.4,0.5,0.5c0.3,0,0.7,0.1,1,0.1c0.7,0.1,1.2,0.5,1.2,1.3C133.4,24.6,133.3,24.9,133,25.1z"/>
	</g>
</g>
<path class="st0" d="M99,19.9l-0.2-0.4c0.4-0.2,0.4-0.4,0.4-0.7h-0.5v-1h1v0.9C99.7,19.3,99.6,19.7,99,19.9z"/>
</svg>
