<?xml version="1.0" encoding="utf-8"?>
<!-- Generator: Adobe Illustrator 19.2.1, SVG Export Plug-In . SVG Version: 6.00 Build 0)  -->
<svg version="1.1" id="Layer_1" xmlns="http://www.w3.org/2000/svg" xmlns:xlink="http://www.w3.org/1999/xlink" x="0px" y="0px"
	 width="209.1px" height="139.6px" viewBox="0 0 209.1 139.6" style="enable-background:new 0 0 209.1 139.6;" xml:space="preserve"
	>
<g>
	<path d="M101.8,50.8C101.8,22.7,79.1,0,51,0S2.7,21.9,0.3,49.9c-3.6,42.6,28.8,78.3,68.1,89.7C55,131.5,45.6,117.4,44.1,101
		c2.3,0.3,4.6,0.6,7,0.6C79.1,101.5,101.8,78.8,101.8,50.8z"/>
	<path d="M209.1,50.8c0-28-22.7-50.8-50.8-50.8c-28,0-48.4,21.9-50.8,49.9c-3.6,42.6,28.8,78.3,68.1,89.7
		c-13.4-8.1-22.8-22.2-24.3-38.6c2.3,0.3,4.6,0.6,7,0.6C186.3,101.5,209.1,78.8,209.1,50.8z"/>
</g>
</svg>
