<?xml version="1.0" encoding="utf-8"?>
<!-- Generator: Adobe Illustrator 18.1.1, SVG Export Plug-In . SVG Version: 6.00 Build 0)  -->
<svg version="1.1" id="Layer_1" xmlns="http://www.w3.org/2000/svg" xmlns:xlink="http://www.w3.org/1999/xlink" x="0px" y="0px"
	 width="24.8px" height="22.6px" viewBox="0 0 24.8 22.6" enable-background="new 0 0 24.8 22.6" xml:space="preserve">
<path d="M5.9,2.7c0,1.5-1.1,2.7-3,2.7h0C1.1,5.3,0,4.1,0,2.7C0,1.1,1.2,0,3,0C4.7,0,5.8,1.1,5.9,2.7z M0.6,22.6h4.8V7.2H0.6V22.6z
	 M18.7,7.1c-2.8,0-4.5,1.5-4.8,2.6V7.2H8.4c0.1,1.3,0,15.3,0,15.3h5.4v-8.3c0-0.5,0-0.9,0.1-1.3c0.4-0.9,1.2-1.9,2.6-1.9
	c1.9,0,2.7,1.4,2.7,3.5v7.9h5.5V14C24.8,9.3,22.1,7.1,18.7,7.1z"/>
</svg>
